<svg width="25" height="25" viewBox="0 0 25 25" fill="none" xmlns="http://www.w3.org/2000/svg">
<path d="M9.375 3.125H15.625H9.375Z" fill="#DADADA"/>
<path d="M3.125 6.25H21.875H3.125Z" fill="#DADADA"/>
<path d="M9.375 3.125H15.625M3.125 6.25H21.875M19.7917 6.25L19.0612 17.2076C18.9516 18.8516 18.8968 19.6736 18.5417 20.2969C18.2291 20.8456 17.7575 21.2868 17.1892 21.5622C16.5437 21.875 15.7199 21.875 14.0722 21.875H10.9278C9.28011 21.875 8.45628 21.875 7.81077 21.5622C7.24246 21.2868 6.77093 20.8456 6.45832 20.2969C6.10324 19.6736 6.04844 18.8516 5.93884 17.2076L5.20833 6.25" stroke="#DADADA" stroke-width="2" stroke-linecap="round" stroke-linejoin="round"/>
<path d="M5.07812 5.66406L19.9219 6.44531L18.4211 21.0526L12.1094 21.6797L6.57902 21.0526L5.07812 5.66406Z" fill="#DADADA"/>
</svg>
