<svg width="31" height="31" viewBox="0 0 31 31" fill="none" xmlns="http://www.w3.org/2000/svg">
<path d="M5.34007 13.3935C5.00289 13.0817 5.18604 12.518 5.64211 12.4639L12.1043 11.6978C12.2902 11.6757 12.4516 11.5586 12.53 11.3887L15.2557 5.47943C15.448 5.06239 16.0409 5.06234 16.2332 5.47937L18.9589 11.3887C19.0373 11.5587 19.1977 11.6757 19.3836 11.6978L25.8461 12.4639C26.3022 12.518 26.4852 13.0818 26.148 13.3936L21.3707 17.8119C21.2333 17.9389 21.1719 18.1284 21.2084 18.3119L22.4764 24.6947C22.5659 25.1452 22.0865 25.4935 21.6858 25.2692L16.0074 22.0907C15.8441 21.9993 15.6451 21.9992 15.4818 22.0906L9.80291 25.2692C9.40217 25.4936 8.92227 25.1452 9.01177 24.6948L10.2801 18.3119C10.3165 18.1283 10.2553 17.939 10.1178 17.8119L5.34007 13.3935Z" fill="#DADADA"/>
</svg>
