<svg width="168" height="59" viewBox="0 0 168 59" fill="none" xmlns="http://www.w3.org/2000/svg">
<path d="M73.5683 53.0749L68.2586 50.8291C62.0211 48.1908 54.9825 48.1831 48.7393 50.8076L43.2656 53.1087C37.7997 55.4064 31.5032 54.4005 27.0253 50.5142L26.6542 50.1921C24.0614 47.9419 20.7437 46.703 17.3106 46.703H16.9637C10.9088 46.703 5.56262 42.752 3.78538 36.9638C3.26663 35.2743 3.07759 33.5009 3.22854 31.74L3.29133 31.0076C4.21861 20.1907 14.6349 12.7939 25.153 15.4832L27.3568 16.0466C31.8625 17.1986 36.6315 16.7024 40.8035 14.6476L46.2941 11.9433C55.284 7.51548 65.711 7.02805 75.0747 10.5979L78.0488 11.7317C85.7397 14.6637 94.1248 15.2609 102.154 13.4485L105.297 12.7388C112.172 11.1868 119.367 11.9298 125.78 14.8541L132.913 18.107C136.275 19.6401 140.114 19.7486 143.557 18.4078C149.297 16.1726 155.823 18.0476 159.501 22.9888L160.723 24.6304C165.042 30.432 165.042 38.3799 160.723 44.1815L160.179 44.9132C155.988 50.5432 148.852 53.1444 142.021 51.5323L131.451 49.0377C124.996 47.5143 118.237 47.9049 112 50.1617L101.879 53.8244C92.6848 57.1515 82.5734 56.8838 73.5683 53.0749Z" stroke="black" stroke-width="1.5"/>
<path d="M70.5683 48.0749L65.2586 45.8291C59.0211 43.1908 51.9825 43.1831 45.7393 45.8076L40.2656 48.1087C34.7997 50.4064 28.5032 49.4005 24.0253 45.5142L23.6542 45.1921C21.0614 42.9419 17.7437 41.703 14.3106 41.703H13.9637C7.90876 41.703 2.56262 37.752 0.785376 31.9638C0.266632 30.2743 0.0775879 28.5009 0.228538 26.74L0.291327 26.0076C1.21861 15.1907 11.6349 7.79393 22.153 10.4832L24.3568 11.0466C28.8625 12.1986 33.6315 11.7024 37.8035 9.64757L43.2941 6.94327C52.284 2.51548 62.711 2.02805 72.0747 5.59786L75.0488 6.7317C82.7397 9.66373 91.1248 10.2609 99.1535 8.44851L102.297 7.73884C109.172 6.18682 116.367 6.92979 122.78 9.85411L129.913 13.107C133.275 14.6401 137.114 14.7486 140.557 13.4078C146.297 11.1726 152.823 13.0476 156.501 17.9888L157.723 19.6304C162.042 25.432 162.042 33.3799 157.723 39.1815L157.179 39.9132C152.988 45.5432 145.852 48.1444 139.021 46.5323L128.451 44.0377C121.996 42.5143 115.237 42.9049 109 45.1617L98.8789 48.8244C89.6848 52.1515 79.5734 51.8838 70.5683 48.0749Z" fill="#473ADC"/>
<path d="M19.75 32.5V23.7666C19.75 23.4054 19.75 23.2248 19.8157 23.0784C19.8736 22.9493 19.9669 22.8392 20.0847 22.7608C20.2184 22.6719 20.3965 22.6423 20.7527 22.5829L27.3527 21.4829C27.8334 21.4028 28.0738 21.3627 28.2611 21.4323C28.4255 21.4933 28.5633 21.6101 28.6506 21.7622C28.75 21.9355 28.75 22.1792 28.75 22.6666V31M19.75 32.5C19.75 33.7426 18.7426 34.75 17.5 34.75C16.2574 34.75 15.25 33.7426 15.25 32.5C15.25 31.2574 16.2574 30.25 17.5 30.25C18.7426 30.25 19.75 31.2574 19.75 32.5ZM28.75 31C28.75 32.2426 27.7426 33.25 26.5 33.25C25.2574 33.25 24.25 32.2426 24.25 31C24.25 29.7574 25.2574 28.75 26.5 28.75C27.7426 28.75 28.75 29.7574 28.75 31Z" stroke="white" stroke-width="1.5" stroke-linecap="round" stroke-linejoin="round"/>
<path d="M42.6012 32H44.3232V28.192H47.7812V26.582H44.3232V23.81H48.2012V22.2H42.6012V32ZM49.8206 27.324C50.2826 27.114 50.7446 26.89 51.4726 26.89C52.4106 26.89 52.6906 27.464 52.6486 28.514C52.3406 28.29 51.7806 28.108 51.2206 28.108C49.9466 28.108 48.9246 28.766 48.9246 30.152C48.9246 31.37 49.7506 32.084 50.8986 32.084C51.7526 32.084 52.4246 31.748 52.7606 31.272V32H54.1606V28.164C54.1606 26.498 53.5026 25.546 51.6406 25.546C50.8146 25.546 49.9606 25.826 49.4146 26.148L49.8206 27.324ZM51.4306 30.726C50.9266 30.726 50.5346 30.46 50.5346 29.984C50.5346 29.452 51.0106 29.2 51.5426 29.2C52.0046 29.2 52.3686 29.298 52.6486 29.508V30.152C52.4526 30.432 52.1026 30.726 51.4306 30.726ZM61.677 25.7H59.983L58.891 28.374C58.723 28.78 58.541 29.354 58.429 29.83C58.317 29.34 58.121 28.78 57.953 28.402L56.791 25.7H54.873L57.771 32.028H58.961L61.677 25.7ZM63.0133 32H64.7353V24.958L67.8573 29.27H68.1093L71.2033 24.916V32H72.9113V22.2H71.2873L68.0953 26.778L64.7493 22.2H63.0133V32ZM80.8684 25.7H79.2584V29.886C78.8944 30.362 78.3764 30.656 77.8444 30.656C76.9624 30.656 76.6404 30.054 76.6404 29.214V25.7H75.0304V29.55C75.0304 31.356 76.0104 32.154 77.2424 32.154C78.2224 32.154 78.8804 31.692 79.2584 31.23V32H80.8684V25.7ZM85.8546 30.222C85.8546 30.614 85.4906 30.81 85.0286 30.81C84.3986 30.81 83.4466 30.432 83.0686 30.026L82.2846 31.076C82.5786 31.524 83.7546 32.154 84.9166 32.154C86.4566 32.154 87.4646 31.384 87.4646 30.138C87.4646 27.912 84.0626 28.486 84.0626 27.436C84.0626 27.156 84.3566 26.89 84.8466 26.89C85.5186 26.89 86.1766 27.198 86.5546 27.492L87.1566 26.344C86.7646 25.98 85.9806 25.546 84.7626 25.546C83.4606 25.546 82.4526 26.232 82.4526 27.464C82.4526 29.76 85.8546 29.2 85.8546 30.222ZM89.1213 32H90.7313V25.7H89.1213V32ZM88.9533 23.432C88.9533 24.076 89.4153 24.44 89.9613 24.44C90.4233 24.44 90.8853 24.076 90.8853 23.432C90.8853 22.858 90.4233 22.494 89.9613 22.494C89.4153 22.494 88.9533 22.858 88.9533 23.432ZM97.5401 29.886C97.1341 30.334 96.6021 30.656 95.9161 30.656C94.9641 30.656 94.0961 29.97 94.0961 28.85C94.0961 27.744 94.9501 27.058 95.8461 27.058C96.4201 27.058 96.9381 27.212 97.4141 27.674L98.1701 26.4C97.5821 25.812 96.6721 25.546 95.6361 25.546C93.7181 25.546 92.3741 27.016 92.3741 28.85C92.3741 30.838 93.7461 32.154 95.7901 32.154C96.8121 32.154 97.7641 31.776 98.2961 31.062L97.5401 29.886ZM100.05 32H106.182V30.39H101.772V22.2H100.05V32ZM107.155 32H108.765V25.7H107.155V32ZM106.987 23.432C106.987 24.076 107.449 24.44 107.995 24.44C108.457 24.44 108.919 24.076 108.919 23.432C108.919 22.858 108.457 22.494 107.995 22.494C107.449 22.494 106.987 22.858 106.987 23.432ZM113.991 30.222C113.991 30.614 113.627 30.81 113.165 30.81C112.535 30.81 111.583 30.432 111.205 30.026L110.421 31.076C110.715 31.524 111.891 32.154 113.053 32.154C114.593 32.154 115.601 31.384 115.601 30.138C115.601 27.912 112.199 28.486 112.199 27.436C112.199 27.156 112.493 26.89 112.983 26.89C113.655 26.89 114.313 27.198 114.691 27.492L115.293 26.344C114.901 25.98 114.117 25.546 112.899 25.546C111.597 25.546 110.589 26.232 110.589 27.464C110.589 29.76 113.991 29.2 113.991 30.222ZM116.88 29.606C116.88 31.216 117.412 32.14 118.84 32.14C119.652 32.14 120.324 31.832 120.702 31.524L120.212 30.278C119.988 30.446 119.68 30.642 119.246 30.642C118.714 30.642 118.49 30.194 118.49 29.508V27.212H120.52V25.7H118.49V23.95H116.88V29.606ZM124.234 32H125.97L126.992 29.494H131.178L132.2 32H134.034L129.89 22.172H128.378L124.234 32ZM129.092 24.398L130.52 27.884H127.65L129.092 24.398ZM135.04 34.8H136.65V31.846C137.014 32.056 137.56 32.154 138.12 32.154C140.136 32.154 141.452 30.67 141.452 28.752C141.452 26.89 140.332 25.546 138.596 25.546C137.784 25.546 137.042 25.882 136.65 26.302V25.7H135.04V34.8ZM138.092 27.058C139.156 27.058 139.744 27.786 139.744 28.794C139.744 29.844 139.1 30.656 137.98 30.656C137.448 30.656 137.084 30.572 136.65 30.292V27.744C137.042 27.31 137.546 27.058 138.092 27.058ZM142.846 34.8H144.456V31.846C144.82 32.056 145.366 32.154 145.926 32.154C147.942 32.154 149.258 30.67 149.258 28.752C149.258 26.89 148.138 25.546 146.402 25.546C145.59 25.546 144.848 25.882 144.456 26.302V25.7H142.846V34.8ZM145.898 27.058C146.962 27.058 147.55 27.786 147.55 28.794C147.55 29.844 146.906 30.656 145.786 30.656C145.254 30.656 144.89 30.572 144.456 30.292V27.744C144.848 27.31 145.352 27.058 145.898 27.058Z" fill="white"/>
</svg>
